# MagicaVoxel @ Ephtracy

# group
o 

# material
mtllib untitled.mtl
usemtl palette

# normals
vn -1 0 0
vn 1 0 0
vn 0 0 1
vn 0 0 -1
vn 0 -1 0
vn 0 1 0

# texcoords
vt 0.0175781 0.5
vt 0.0253906 0.5
vt 0.0292969 0.5
vt 0.0449219 0.5
vt 0.0488281 0.5
vt 0.0527344 0.5
vt 0.0566406 0.5

# verts
v -0.5 0 0.1
v -0.5 0 -0.3
v -0.5 0.1 -2.98023e-08
v -0.5 0.1 -0.1
v -0.5 0.1 -0.2
v -0.5 0.1 -0.3
v -0.5 0.2 0.1
v -0.5 0.2 -2.98023e-08
v -0.5 0.2 -0.1
v -0.5 0.2 -0.2
v -0.5 0.2 -0.3
v -0.4 0 0.2
v -0.4 0 0.1
v -0.4 0 -0.3
v -0.4 0 -0.4
v -0.4 0.1 -0.3
v -0.4 0.2 0.2
v -0.4 0.2 0.1
v -0.4 0.2 -0.3
v -0.4 0.2 -0.4
v -0.3 0 0.3
v -0.3 0 0.2
v -0.3 0 -0.4
v -0.3 0 -0.5
v -0.3 0.1 0.3
v -0.3 0.1 0.2
v -0.3 0.1 -0.1
v -0.3 0.1 -0.2
v -0.3 0.1 -0.4
v -0.3 0.1 -0.5
v -0.3 0.2 0.3
v -0.3 0.2 0.2
v -0.3 0.2 -0.1
v -0.3 0.2 -0.2
v -0.3 0.2 -0.4
v -0.3 0.2 -0.5
v -0.2 0.1 0.1
v -0.2 0.1 -2.98023e-08
v -0.2 0.1 -0.1
v -0.2 0.2 0.1
v -0.2 0.2 -2.98023e-08
v -0.2 0.2 -0.1
v -0.2 0.3 0.1
v -0.2 0.3 -2.98023e-08
v -0.1 0.1 -0.1
v -0.1 0.1 -0.2
v -0.1 0.2 -0.1
v -0.1 0.2 -0.2
v 0.1 0.1 0.2
v 0.1 0.1 0.1
v 0.1 0.1 -0.3
v 0.1 0.1 -0.4
v 0.1 0.2 0.2
v 0.1 0.2 0.1
v 0.1 0.2 -0.3
v 0.1 0.2 -0.4
v 0.2 0.1 0.1
v 0.2 0.1 -2.98023e-08
v 0.2 0.1 -0.1
v 0.2 0.1 -0.2
v 0.2 0.1 -0.3
v 0.2 0.2 0.1
v 0.2 0.2 -2.98023e-08
v 0.2 0.2 -0.2
v 0.2 0.2 -0.3
v -0.4 0.1 0.1
v -0.4 0.1 -2.98023e-08
v -0.4 0.1 -0.1
v -0.4 0.1 -0.2
v -0.4 0.1 -0.3
v -0.4 0.2 0.1
v -0.4 0.2 -2.98023e-08
v -0.4 0.2 -0.1
v -0.4 0.2 -0.2
v -0.4 0.2 -0.3
v -0.3 0.1 0.2
v -0.3 0.1 0.1
v -0.3 0.1 -0.3
v -0.3 0.1 -0.4
v -0.3 0.2 0.2
v -0.3 0.2 0.1
v -0.3 0.2 -0.3
v -0.3 0.2 -0.4
v -0.2 0.1 -0.1
v -0.2 0.1 -0.2
v -0.2 0.2 -0.1
v -0.2 0.2 -0.2
v -0.1 0.1 0.1
v -0.1 0.1 -2.98023e-08
v -0.1 0.1 -0.1
v -0.1 0.2 0.1
v -0.1 0.2 -2.98023e-08
v -0.1 0.2 -0.1
v -0.1 0.3 0.1
v -0.1 0.3 -2.98023e-08
v 0 0.1 -0.1
v 0 0.1 -0.2
v 0 0.2 -0.1
v 0 0.2 -0.2
v 0.1 0 0.3
v 0.1 0 0.2
v 0.1 0 -0.4
v 0.1 0 -0.5
v 0.1 0.1 -0.4
v 0.1 0.1 -0.5
v 0.1 0.2 0.3
v 0.1 0.2 0.2
v 0.1 0.2 -0.4
v 0.1 0.2 -0.5
v 0.2 0 0.2
v 0.2 0 0.1
v 0.2 0 -0.3
v 0.2 0 -0.4
v 0.2 0.1 0.1
v 0.2 0.1 -0.3
v 0.2 0.1 -0.4
v 0.2 0.2 0.2
v 0.2 0.2 0.1
v 0.2 0.2 -0.3
v 0.2 0.2 -0.4
v 0.3 0 0.1
v 0.3 0 -0.3
v 0.3 0.1 0.1
v 0.3 0.1 -2.98023e-08
v 0.3 0.1 -0.2
v 0.3 0.1 -0.3
v 0.3 0.2 0.1
v 0.3 0.2 -2.98023e-08
v 0.3 0.2 -0.2
v 0.3 0.2 -0.3
v -0.3 0 0.3
v -0.3 0.1 0.3
v -0.3 0.2 0.3
v -0.2 0.1 0.3
v -0.2 0.2 0.3
v -0.1 0.1 0.3
v -0.1 0.2 0.3
v 0 0.1 0.3
v 0 0.2 0.3
v 0.1 0 0.3
v 0.1 0.2 0.3
v -0.4 0 0.2
v -0.4 0.2 0.2
v -0.3 0 0.2
v -0.3 0.1 0.2
v -0.3 0.2 0.2
v 0.1 0 0.2
v 0.1 0.2 0.2
v 0.2 0 0.2
v 0.2 0.2 0.2
v -0.5 0 0.1
v -0.5 0.2 0.1
v -0.4 0 0.1
v -0.4 0.2 0.1
v -0.2 0.1 0.1
v -0.2 0.2 0.1
v -0.2 0.3 0.1
v -0.1 0.1 0.1
v -0.1 0.2 0.1
v -0.1 0.3 0.1
v 0.2 0 0.1
v 0.2 0.1 0.1
v 0.2 0.2 0.1
v 0.3 0 0.1
v 0.3 0.1 0.1
v 0.3 0.2 0.1
v -0.3 0.1 -0.1
v -0.3 0.2 -0.1
v -0.2 0.1 -0.1
v -0.2 0.2 -0.1
v -0.1 0.1 -0.1
v -0.1 0.2 -0.1
v 0 0.1 -0.1
v 0 0.2 -0.1
v -0.4 0.1 -0.3
v -0.4 0.2 -0.3
v -0.3 0.1 -0.3
v -0.3 0.2 -0.3
v 0.1 0.1 -0.3
v 0.1 0.2 -0.3
v 0.2 0.1 -0.3
v 0.2 0.2 -0.3
v -0.3 0.1 -0.4
v -0.3 0.2 -0.4
v -0.2 0.1 -0.4
v -0.2 0.2 -0.4
v -0.1 0.1 -0.4
v -0.1 0.2 -0.4
v 0 0.1 -0.4
v 0 0.2 -0.4
v 0.1 0.1 -0.4
v 0.1 0.2 -0.4
v -0.3 0.1 0.2
v -0.3 0.2 0.2
v -0.2 0.1 0.2
v -0.2 0.2 0.2
v -0.1 0.1 0.2
v -0.1 0.2 0.2
v 0 0.1 0.2
v 0 0.2 0.2
v 0.1 0.1 0.2
v 0.1 0.2 0.2
v -0.4 0.1 0.1
v -0.4 0.2 0.1
v -0.3 0.1 0.1
v -0.3 0.2 0.1
v 0.1 0.1 0.1
v 0.1 0.2 0.1
v 0.2 0.1 0.1
v 0.2 0.2 0.1
v -0.2 0.2 -2.98023e-08
v -0.2 0.3 -2.98023e-08
v -0.1 0.2 -2.98023e-08
v -0.1 0.3 -2.98023e-08
v -0.2 0.1 -0.1
v -0.2 0.2 -0.1
v -0.1 0.1 -0.1
v -0.1 0.2 -0.1
v -0.3 0.1 -0.2
v -0.3 0.2 -0.2
v -0.2 0.1 -0.2
v -0.2 0.2 -0.2
v -0.1 0.1 -0.2
v -0.1 0.2 -0.2
v 0 0.1 -0.2
v 0 0.2 -0.2
v -0.5 0 -0.3
v -0.5 0.1 -0.3
v -0.5 0.2 -0.3
v -0.4 0 -0.3
v -0.4 0.1 -0.3
v -0.4 0.2 -0.3
v 0.2 0 -0.3
v 0.2 0.1 -0.3
v 0.2 0.2 -0.3
v 0.3 0 -0.3
v 0.3 0.1 -0.3
v 0.3 0.2 -0.3
v -0.4 0 -0.4
v -0.4 0.2 -0.4
v -0.3 0 -0.4
v -0.3 0.1 -0.4
v -0.3 0.2 -0.4
v 0.1 0 -0.4
v 0.1 0.1 -0.4
v 0.1 0.2 -0.4
v 0.2 0 -0.4
v 0.2 0.1 -0.4
v 0.2 0.2 -0.4
v -0.3 0 -0.5
v -0.3 0.1 -0.5
v -0.3 0.2 -0.5
v -0.2 0.1 -0.5
v -0.2 0.2 -0.5
v -0.1 0.1 -0.5
v -0.1 0.2 -0.5
v 0 0.1 -0.5
v 0 0.2 -0.5
v 0.1 0 -0.5
v 0.1 0.1 -0.5
v 0.1 0.2 -0.5
v -0.3 0 0.3
v 0.1 0 0.3
v -0.4 0 0.2
v -0.3 0 0.2
v -0.2 0 0.2
v -0.1 0 0.2
v 0 0 0.2
v 0.1 0 0.2
v 0.2 0 0.2
v -0.5 0 0.1
v -0.4 0 0.1
v -0.3 0 0.1
v -0.2 0 0.1
v -0.1 0 0.1
v 0 0 0.1
v 0.1 0 0.1
v 0.2 0 0.1
v 0.3 0 0.1
v -0.4 0 -2.98023e-08
v -0.3 0 -2.98023e-08
v -0.2 0 -2.98023e-08
v -0.1 0 -2.98023e-08
v 0 0 -2.98023e-08
v 0.1 0 -2.98023e-08
v 0.2 0 -2.98023e-08
v -0.4 0 -0.1
v -0.3 0 -0.1
v -0.2 0 -0.1
v -0.1 0 -0.1
v 0 0 -0.1
v 0.1 0 -0.1
v 0.2 0 -0.1
v -0.4 0 -0.2
v -0.3 0 -0.2
v -0.2 0 -0.2
v -0.1 0 -0.2
v 0 0 -0.2
v 0.1 0 -0.2
v 0.2 0 -0.2
v -0.5 0 -0.3
v -0.4 0 -0.3
v -0.3 0 -0.3
v -0.2 0 -0.3
v -0.1 0 -0.3
v 0 0 -0.3
v 0.1 0 -0.3
v 0.2 0 -0.3
v 0.3 0 -0.3
v -0.4 0 -0.4
v -0.3 0 -0.4
v -0.2 0 -0.4
v -0.1 0 -0.4
v 0 0 -0.4
v 0.1 0 -0.4
v 0.2 0 -0.4
v -0.3 0 -0.5
v 0.1 0 -0.5
v -0.3 0.1 0.2
v -0.2 0.1 0.2
v -0.1 0.1 0.2
v 0 0.1 0.2
v 0.1 0.1 0.2
v -0.4 0.1 0.1
v -0.3 0.1 0.1
v -0.2 0.1 0.1
v -0.1 0.1 0.1
v 0 0.1 0.1
v 0.1 0.1 0.1
v 0.2 0.1 0.1
v -0.4 0.1 -2.98023e-08
v -0.3 0.1 -2.98023e-08
v -0.2 0.1 -2.98023e-08
v -0.1 0.1 -2.98023e-08
v 0 0.1 -2.98023e-08
v 0.1 0.1 -2.98023e-08
v 0.2 0.1 -2.98023e-08
v -0.4 0.1 -0.1
v -0.3 0.1 -0.1
v -0.2 0.1 -0.1
v -0.1 0.1 -0.1
v 0 0.1 -0.1
v 0.1 0.1 -0.1
v 0.2 0.1 -0.1
v -0.4 0.1 -0.2
v -0.3 0.1 -0.2
v -0.2 0.1 -0.2
v -0.1 0.1 -0.2
v 0 0.1 -0.2
v 0.1 0.1 -0.2
v 0.2 0.1 -0.2
v -0.4 0.1 -0.3
v -0.3 0.1 -0.3
v -0.2 0.1 -0.3
v -0.1 0.1 -0.3
v 0 0.1 -0.3
v 0.1 0.1 -0.3
v 0.2 0.1 -0.3
v -0.3 0.1 -0.4
v -0.2 0.1 -0.4
v -0.1 0.1 -0.4
v 0 0.1 -0.4
v 0.1 0.1 -0.4
v -0.3 0.2 0.3
v -0.2 0.2 0.3
v -0.1 0.2 0.3
v 0 0.2 0.3
v 0.1 0.2 0.3
v -0.4 0.2 0.2
v -0.3 0.2 0.2
v -0.2 0.2 0.2
v -0.1 0.2 0.2
v 0 0.2 0.2
v 0.1 0.2 0.2
v 0.2 0.2 0.2
v -0.5 0.2 0.1
v -0.4 0.2 0.1
v -0.3 0.2 0.1
v 0.1 0.2 0.1
v 0.2 0.2 0.1
v 0.3 0.2 0.1
v -0.5 0.2 -2.98023e-08
v -0.4 0.2 -2.98023e-08
v -0.2 0.2 -2.98023e-08
v -0.1 0.2 -2.98023e-08
v 0.2 0.2 -2.98023e-08
v 0.3 0.2 -2.98023e-08
v -0.5 0.2 -0.1
v -0.4 0.2 -0.1
v -0.3 0.2 -0.1
v -0.2 0.2 -0.1
v -0.1 0.2 -0.1
v 0 0.2 -0.1
v -0.5 0.2 -0.2
v -0.4 0.2 -0.2
v -0.3 0.2 -0.2
v -0.2 0.2 -0.2
v -0.1 0.2 -0.2
v 0 0.2 -0.2
v 0.2 0.2 -0.2
v 0.3 0.2 -0.2
v -0.5 0.2 -0.3
v -0.4 0.2 -0.3
v -0.3 0.2 -0.3
v 0.1 0.2 -0.3
v 0.2 0.2 -0.3
v 0.3 0.2 -0.3
v -0.4 0.2 -0.4
v -0.3 0.2 -0.4
v -0.2 0.2 -0.4
v -0.1 0.2 -0.4
v 0 0.2 -0.4
v 0.1 0.2 -0.4
v 0.2 0.2 -0.4
v -0.3 0.2 -0.5
v -0.2 0.2 -0.5
v -0.1 0.2 -0.5
v 0 0.2 -0.5
v 0.1 0.2 -0.5
v -0.2 0.3 0.1
v -0.1 0.3 0.1
v -0.2 0.3 -2.98023e-08
v -0.1 0.3 -2.98023e-08

# faces
f 3/3/1 2/3/1 1/3/1
f 4/3/1 2/3/1 3/3/1
f 5/3/1 2/3/1 4/3/1
f 6/3/1 2/3/1 5/3/1
f 7/3/1 3/3/1 1/3/1
f 8/1/1 4/1/1 3/1/1
f 8/3/1 3/3/1 7/3/1
f 9/3/1 5/3/1 4/3/1
f 9/1/1 4/1/1 8/1/1
f 10/1/1 6/1/1 5/1/1
f 10/3/1 5/3/1 9/3/1
f 11/1/1 6/1/1 10/1/1
f 16/3/1 15/3/1 14/3/1
f 17/2/1 13/2/1 12/2/1
f 18/2/1 13/2/1 17/2/1
f 19/3/1 15/3/1 16/3/1
f 20/3/1 15/3/1 19/3/1
f 25/3/1 22/3/1 21/3/1
f 26/3/1 22/3/1 25/3/1
f 29/3/1 24/3/1 23/3/1
f 30/3/1 24/3/1 29/3/1
f 31/2/1 26/2/1 25/2/1
f 32/2/1 26/2/1 31/2/1
f 33/6/1 28/6/1 27/6/1
f 34/6/1 28/6/1 33/6/1
f 35/1/1 30/1/1 29/1/1
f 36/1/1 30/1/1 35/1/1
f 40/6/1 38/6/1 37/6/1
f 41/7/1 39/7/1 38/7/1
f 41/6/1 38/6/1 40/6/1
f 42/7/1 39/7/1 41/7/1
f 43/7/1 41/7/1 40/7/1
f 44/7/1 41/7/1 43/7/1
f 47/6/1 46/6/1 45/6/1
f 48/6/1 46/6/1 47/6/1
f 53/3/1 50/3/1 49/3/1
f 54/3/1 50/3/1 53/3/1
f 55/1/1 52/1/1 51/1/1
f 56/1/1 52/1/1 55/1/1
f 62/1/1 58/1/1 57/1/1
f 63/3/1 59/3/1 58/3/1
f 63/1/1 58/1/1 62/1/1
f 63/3/1 60/3/1 59/3/1
f 64/1/1 61/1/1 60/1/1
f 64/3/1 60/3/1 63/3/1
f 65/1/1 61/1/1 64/1/1
f 66/3/2 67/3/2 71/3/2
f 67/1/2 68/1/2 72/1/2
f 71/3/2 67/3/2 72/3/2
f 68/3/2 69/3/2 73/3/2
f 72/1/2 68/1/2 73/1/2
f 69/1/2 70/1/2 74/1/2
f 73/3/2 69/3/2 74/3/2
f 74/1/2 70/1/2 75/1/2
f 76/2/2 77/2/2 80/2/2
f 80/2/2 77/2/2 81/2/2
f 78/3/2 79/3/2 82/3/2
f 82/3/2 79/3/2 83/3/2
f 84/6/2 85/6/2 86/6/2
f 86/6/2 85/6/2 87/6/2
f 88/6/2 89/6/2 91/6/2
f 89/7/2 90/7/2 92/7/2
f 91/6/2 89/6/2 92/6/2
f 92/7/2 90/7/2 93/7/2
f 91/7/2 92/7/2 94/7/2
f 94/7/2 92/7/2 95/7/2
f 96/6/2 97/6/2 98/6/2
f 98/6/2 97/6/2 99/6/2
f 102/3/2 103/3/2 104/3/2
f 104/3/2 103/3/2 105/3/2
f 100/3/2 101/3/2 106/3/2
f 106/3/2 101/3/2 107/3/2
f 104/2/2 105/2/2 108/2/2
f 108/2/2 105/2/2 109/2/2
f 110/3/2 111/3/2 114/3/2
f 112/3/2 113/3/2 115/3/2
f 115/3/2 113/3/2 116/3/2
f 110/3/2 114/3/2 117/3/2
f 117/3/2 114/3/2 118/3/2
f 115/1/2 116/1/2 119/1/2
f 119/1/2 116/1/2 120/1/2
f 121/3/2 122/3/2 123/3/2
f 123/3/2 122/3/2 124/3/2
f 124/3/2 122/3/2 125/3/2
f 125/3/2 122/3/2 126/3/2
f 123/1/2 124/1/2 127/1/2
f 124/3/2 125/3/2 128/3/2
f 127/1/2 124/1/2 128/1/2
f 125/1/2 126/1/2 129/1/2
f 128/3/2 125/3/2 129/3/2
f 129/1/2 126/1/2 130/1/2
f 134/3/3 132/3/3 131/3/3
f 134/2/3 133/2/3 132/2/3
f 135/2/3 133/2/3 134/2/3
f 136/3/3 134/3/3 131/3/3
f 136/3/3 135/3/3 134/3/3
f 137/3/3 135/3/3 136/3/3
f 138/3/3 136/3/3 131/3/3
f 138/1/3 137/1/3 136/1/3
f 139/1/3 137/1/3 138/1/3
f 140/3/3 138/3/3 131/3/3
f 140/3/3 139/3/3 138/3/3
f 141/3/3 139/3/3 140/3/3
f 144/2/3 143/2/3 142/2/3
f 145/2/3 143/2/3 144/2/3
f 146/2/3 143/2/3 145/2/3
f 149/3/3 148/3/3 147/3/3
f 150/3/3 148/3/3 149/3/3
f 153/3/3 152/3/3 151/3/3
f 154/3/3 152/3/3 153/3/3
f 158/6/3 156/6/3 155/6/3
f 159/7/3 157/7/3 156/7/3
f 159/6/3 156/6/3 158/6/3
f 160/7/3 157/7/3 159/7/3
f 164/3/3 162/3/3 161/3/3
f 165/1/3 163/1/3 162/1/3
f 165/3/3 162/3/3 164/3/3
f 166/1/3 163/1/3 165/1/3
f 169/6/3 168/6/3 167/6/3
f 170/6/3 168/6/3 169/6/3
f 173/6/3 172/6/3 171/6/3
f 174/6/3 172/6/3 173/6/3
f 177/3/3 176/3/3 175/3/3
f 178/3/3 176/3/3 177/3/3
f 181/1/3 180/1/3 179/1/3
f 182/1/3 180/1/3 181/1/3
f 185/1/3 184/1/3 183/1/3
f 186/1/3 184/1/3 185/1/3
f 187/3/3 186/3/3 185/3/3
f 188/3/3 186/3/3 187/3/3
f 189/1/3 188/1/3 187/1/3
f 190/1/3 188/1/3 189/1/3
f 191/2/3 190/2/3 189/2/3
f 192/2/3 190/2/3 191/2/3
f 193/2/4 194/2/4 195/2/4
f 195/2/4 194/2/4 196/2/4
f 195/3/4 196/3/4 197/3/4
f 197/3/4 196/3/4 198/3/4
f 197/1/4 198/1/4 199/1/4
f 199/1/4 198/1/4 200/1/4
f 199/3/4 200/3/4 201/3/4
f 201/3/4 200/3/4 202/3/4
f 203/2/4 204/2/4 205/2/4
f 205/2/4 204/2/4 206/2/4
f 207/3/4 208/3/4 209/3/4
f 209/3/4 208/3/4 210/3/4
f 211/7/4 212/7/4 213/7/4
f 213/7/4 212/7/4 214/7/4
f 215/7/4 216/7/4 217/7/4
f 217/7/4 216/7/4 218/7/4
f 219/6/4 220/6/4 221/6/4
f 221/6/4 220/6/4 222/6/4
f 223/6/4 224/6/4 225/6/4
f 225/6/4 224/6/4 226/6/4
f 227/3/4 228/3/4 230/3/4
f 228/1/4 229/1/4 231/1/4
f 230/3/4 228/3/4 231/3/4
f 231/1/4 229/1/4 232/1/4
f 233/3/4 234/3/4 236/3/4
f 234/1/4 235/1/4 237/1/4
f 236/3/4 234/3/4 237/3/4
f 237/1/4 235/1/4 238/1/4
f 239/3/4 240/3/4 241/3/4
f 241/3/4 240/3/4 242/3/4
f 242/3/4 240/3/4 243/3/4
f 244/3/4 245/3/4 247/3/4
f 245/1/4 246/1/4 248/1/4
f 247/3/4 245/3/4 248/3/4
f 248/1/4 246/1/4 249/1/4
f 250/3/4 251/3/4 253/3/4
f 251/1/4 252/1/4 253/1/4
f 253/1/4 252/1/4 254/1/4
f 250/3/4 253/3/4 255/3/4
f 253/3/4 254/3/4 255/3/4
f 255/3/4 254/3/4 256/3/4
f 250/3/4 255/3/4 257/3/4
f 255/1/4 256/1/4 257/1/4
f 257/1/4 256/1/4 258/1/4
f 250/3/4 257/3/4 259/3/4
f 257/2/4 258/2/4 260/2/4
f 259/3/4 257/3/4 260/3/4
f 260/2/4 258/2/4 261/2/4
f 265/3/5 263/3/5 262/3/5
f 266/3/5 263/3/5 265/3/5
f 267/3/5 263/3/5 266/3/5
f 268/3/5 263/3/5 267/3/5
f 269/3/5 263/3/5 268/3/5
f 272/2/5 265/2/5 264/2/5
f 272/2/5 266/2/5 265/2/5
f 273/2/5 266/2/5 272/2/5
f 274/3/5 267/3/5 266/3/5
f 274/2/5 266/2/5 273/2/5
f 275/5/5 268/5/5 267/5/5
f 275/3/5 267/3/5 274/3/5
f 276/1/5 269/1/5 268/1/5
f 276/5/5 268/5/5 275/5/5
f 277/3/5 270/3/5 269/3/5
f 277/1/5 269/1/5 276/1/5
f 278/3/5 270/3/5 277/3/5
f 280/1/5 273/1/5 272/1/5
f 280/3/5 272/3/5 271/3/5
f 281/4/5 274/4/5 273/4/5
f 281/1/5 273/1/5 280/1/5
f 282/6/5 276/6/5 275/6/5
f 282/4/5 274/4/5 281/4/5
f 282/6/5 275/6/5 274/6/5
f 283/6/5 276/6/5 282/6/5
f 284/4/5 277/4/5 276/4/5
f 284/6/5 276/6/5 283/6/5
f 285/3/5 279/3/5 278/3/5
f 285/4/5 277/4/5 284/4/5
f 285/3/5 278/3/5 277/3/5
f 286/3/5 279/3/5 285/3/5
f 287/2/5 281/2/5 280/2/5
f 287/3/5 280/3/5 271/3/5
f 288/6/5 282/6/5 281/6/5
f 288/2/5 281/2/5 287/2/5
f 289/4/5 283/4/5 282/4/5
f 289/6/5 282/6/5 288/6/5
f 290/7/5 284/7/5 283/7/5
f 290/4/5 283/4/5 289/4/5
f 291/6/5 285/6/5 284/6/5
f 291/7/5 284/7/5 290/7/5
f 292/5/5 286/5/5 285/5/5
f 292/6/5 285/6/5 291/6/5
f 293/3/5 279/3/5 286/3/5
f 293/5/5 286/5/5 292/5/5
f 294/5/5 288/5/5 287/5/5
f 294/3/5 287/3/5 271/3/5
f 295/6/5 289/6/5 288/6/5
f 295/5/5 288/5/5 294/5/5
f 296/7/5 290/7/5 289/7/5
f 296/6/5 289/6/5 295/6/5
f 297/4/5 291/4/5 290/4/5
f 297/7/5 290/7/5 296/7/5
f 298/5/5 292/5/5 291/5/5
f 298/4/5 291/4/5 297/4/5
f 299/3/5 293/3/5 292/3/5
f 299/5/5 292/5/5 298/5/5
f 300/3/5 279/3/5 293/3/5
f 300/3/5 293/3/5 299/3/5
f 301/3/5 294/3/5 271/3/5
f 302/1/5 295/1/5 294/1/5
f 302/3/5 294/3/5 301/3/5
f 303/4/5 296/4/5 295/4/5
f 303/1/5 295/1/5 302/1/5
f 304/5/5 297/5/5 296/5/5
f 304/4/5 296/4/5 303/4/5
f 305/6/5 298/6/5 297/6/5
f 305/5/5 297/5/5 304/5/5
f 306/4/5 299/4/5 298/4/5
f 306/6/5 298/6/5 305/6/5
f 307/1/5 300/1/5 299/1/5
f 307/4/5 299/4/5 306/4/5
f 308/3/5 279/3/5 300/3/5
f 308/1/5 300/1/5 307/1/5
f 309/3/5 279/3/5 308/3/5
f 310/3/5 303/3/5 302/3/5
f 311/2/5 304/2/5 303/2/5
f 311/3/5 303/3/5 310/3/5
f 312/5/5 305/5/5 304/5/5
f 312/2/5 304/2/5 311/2/5
f 313/1/5 306/1/5 305/1/5
f 313/5/5 305/5/5 312/5/5
f 314/3/5 307/3/5 306/3/5
f 314/1/5 306/1/5 313/1/5
f 314/3/5 308/3/5 307/3/5
f 315/3/5 308/3/5 314/3/5
f 316/3/5 308/3/5 315/3/5
f 317/3/5 313/3/5 312/3/5
f 317/3/5 315/3/5 314/3/5
f 317/3/5 314/3/5 313/3/5
f 317/3/5 312/3/5 311/3/5
f 318/3/5 315/3/5 317/3/5
f 319/2/6 320/2/6 325/2/6
f 320/3/6 321/3/6 326/3/6
f 325/2/6 320/2/6 326/2/6
f 321/5/6 322/5/6 327/5/6
f 326/3/6 321/3/6 327/3/6
f 322/1/6 323/1/6 328/1/6
f 327/5/6 322/5/6 328/5/6
f 328/1/6 323/1/6 329/1/6
f 324/1/6 325/1/6 331/1/6
f 325/4/6 326/4/6 332/4/6
f 331/1/6 325/1/6 332/1/6
f 332/4/6 326/4/6 333/4/6
f 327/6/6 328/6/6 334/6/6
f 328/4/6 329/4/6 335/4/6
f 334/6/6 328/6/6 335/6/6
f 329/3/6 330/3/6 336/3/6
f 335/4/6 329/4/6 336/4/6
f 336/3/6 330/3/6 337/3/6
f 331/2/6 332/2/6 338/2/6
f 332/6/6 333/6/6 339/6/6
f 338/2/6 332/2/6 339/2/6
f 339/6/6 333/6/6 340/6/6
f 334/7/6 335/7/6 341/7/6
f 335/6/6 336/6/6 342/6/6
f 341/7/6 335/7/6 342/7/6
f 336/5/6 337/5/6 343/5/6
f 342/6/6 336/6/6 343/6/6
f 343/5/6 337/5/6 344/5/6
f 338/5/6 339/5/6 345/5/6
f 345/5/6 339/5/6 346/5/6
f 340/7/6 341/7/6 347/7/6
f 347/7/6 341/7/6 348/7/6
f 342/5/6 343/5/6 349/5/6
f 343/3/6 344/3/6 350/3/6
f 349/5/6 343/5/6 350/5/6
f 350/3/6 344/3/6 351/3/6
f 345/1/6 346/1/6 352/1/6
f 346/4/6 347/4/6 353/4/6
f 352/1/6 346/1/6 353/1/6
f 347/5/6 348/5/6 354/5/6
f 353/4/6 347/4/6 354/4/6
f 348/6/6 349/6/6 355/6/6
f 354/5/6 348/5/6 355/5/6
f 349/4/6 350/4/6 356/4/6
f 355/6/6 349/6/6 356/6/6
f 350/1/6 351/1/6 357/1/6
f 356/4/6 350/4/6 357/4/6
f 357/1/6 351/1/6 358/1/6
f 353/2/6 354/2/6 359/2/6
f 354/5/6 355/5/6 360/5/6
f 359/2/6 354/2/6 360/2/6
f 355/1/6 356/1/6 361/1/6
f 360/5/6 355/5/6 361/5/6
f 356/3/6 357/3/6 362/3/6
f 361/1/6 356/1/6 362/1/6
f 362/3/6 357/3/6 363/3/6
f 364/2/6 365/2/6 370/2/6
f 365/3/6 366/3/6 371/3/6
f 370/2/6 365/2/6 371/2/6
f 366/1/6 367/1/6 372/1/6
f 371/3/6 366/3/6 372/3/6
f 367/3/6 368/3/6 373/3/6
f 372/1/6 367/1/6 373/1/6
f 373/3/6 368/3/6 374/3/6
f 369/2/6 370/2/6 377/2/6
f 377/2/6 370/2/6 378/2/6
f 374/3/6 375/3/6 379/3/6
f 379/3/6 375/3/6 380/3/6
f 376/3/6 377/3/6 382/3/6
f 382/3/6 377/3/6 383/3/6
f 380/1/6 381/1/6 386/1/6
f 386/1/6 381/1/6 387/1/6
f 382/1/6 383/1/6 388/1/6
f 388/1/6 383/1/6 389/1/6
f 384/7/6 385/7/6 391/7/6
f 391/7/6 385/7/6 392/7/6
f 388/3/6 389/3/6 394/3/6
f 394/3/6 389/3/6 395/3/6
f 390/6/6 391/6/6 396/6/6
f 396/6/6 391/6/6 397/6/6
f 392/6/6 393/6/6 398/6/6
f 398/6/6 393/6/6 399/6/6
f 386/3/6 387/3/6 400/3/6
f 400/3/6 387/3/6 401/3/6
f 394/1/6 395/1/6 402/1/6
f 402/1/6 395/1/6 403/1/6
f 400/1/6 401/1/6 406/1/6
f 406/1/6 401/1/6 407/1/6
f 403/3/6 404/3/6 408/3/6
f 408/3/6 404/3/6 409/3/6
f 405/1/6 406/1/6 413/1/6
f 413/1/6 406/1/6 414/1/6
f 409/1/6 410/1/6 415/1/6
f 410/3/6 411/3/6 416/3/6
f 415/1/6 410/1/6 416/1/6
f 411/1/6 412/1/6 417/1/6
f 416/3/6 411/3/6 417/3/6
f 412/2/6 413/2/6 418/2/6
f 417/1/6 412/1/6 418/1/6
f 418/2/6 413/2/6 419/2/6
f 420/7/6 421/7/6 422/7/6
f 422/7/6 421/7/6 423/7/6
